# xmcd CD database file
#
# Track frame offsets:
#	150
#	12275
#	23517
#	34999
#	47360
#	58261
#	70447
#	82769
#	95656
#	107178
#	117119
#	130281
#	141491
#	151073
#	161268
#	174875
#
# Disc length: 2497 seconds
#
# Revision: 0
# Processed by: cddbd v1.5.1PL0 Copyright (c) Steve Scherf et al.
# Submitted via: CDex 1.51
#
DISCID=c809bf10
DTITLE=Fausto Papetti - The definitive collection - CD 2
DYEAR=2002
DGENRE=Jazz
TTITLE0=Maria Elena
TTITLE1=L' Appartamento
TTITLE2=Till
TTITLE3=La playa
TTITLE4=Summertime
TTITLE5=Elise
TTITLE6=Greensleeves
TTITLE7=Amore Scusami
TTITLE8=Sleepy Lagoon
TTITLE9=Lawrence D' Arabia
TTITLE10=Stardust
TTITLE11=Wonderland by Night
TTITLE12=Laura
TTITLE13=More
TTITLE14=Harlem Nocturne
TTITLE15=Sain Louis Blues
EXTD=YEAR: 2002
EXTT0=
EXTT1=
EXTT2=
EXTT3=
EXTT4=
EXTT5=
EXTT6=
EXTT7=
EXTT8=
EXTT9=
EXTT10=
EXTT11=
EXTT12=
EXTT13=
EXTT14=
EXTT15=
PLAYORDER=
